<svg width="25" height="25" viewBox="0 0 25 25" fill="none" xmlns="http://www.w3.org/2000/svg">
<g clip-path="url(#clip0_83_221)">
<path d="M2.68384 0V24.8276H9.81163L12.4136 15.9809L15.0155 24.8276H22.1433V0H2.68384ZM4.69691 2.01302H6.70993V4.02609H4.69691V2.01302ZM4.69691 6.03917H6.56931C6.28728 7.03222 5.59958 7.85546 4.69691 8.31826V6.03917ZM11.407 12.2689L8.30535 22.8145H4.69691V10.4841C6.71337 9.86237 8.25462 8.14999 8.63228 6.03912H11.407V12.2689ZM8.723 4.02609V2.01302H16.1042V4.02609H8.723ZM20.1303 22.8146H16.5218L13.4201 12.2689V6.03917H16.1949C16.5725 8.15004 18.1138 9.86242 20.1303 10.4842V22.8146ZM20.1303 8.31826C19.2276 7.85551 18.5399 7.03217 18.2579 6.03917H20.1303V8.31826ZM20.1303 4.02609H18.1172V2.01302H20.1303V4.02609Z" fill="currentColor"/>
</g>
<defs>
<clipPath id="clip0_83_221">
<rect width="24.8276" height="24.8276" fill="white"/>
</clipPath>
</defs>
</svg>
