<svg width="25" height="25" viewBox="0 0 25 25" fill="currentColor" xmlns="http://www.w3.org/2000/svg">
<path fill-rule="evenodd" clip-rule="evenodd" d="M12.4178 7.24138C15.2744 7.24138 17.5902 9.55715 17.5902 12.4138H7.24534C7.24534 9.55715 9.56111 7.24138 12.4178 7.24138ZM5.17637 12.5321V12.4138C5.17637 8.41449 8.41845 5.17241 12.4178 5.17241C16.4171 5.17241 19.6591 8.41449 19.6591 12.4138V12.5321C19.8557 12.6017 20.0419 12.7009 20.2108 12.8276L22.9695 14.8966C24.5601 16.0895 23.7164 18.6207 21.7281 18.6207H3.1074C1.1191 18.6207 0.275382 16.0895 1.86602 14.8966L4.62464 12.8276C4.7936 12.7009 4.9798 12.6017 5.17637 12.5321ZM5.86603 14.4828L3.1074 16.5517H21.7281L18.9695 14.4828H5.86603Z" fill="currentColor"/>
</svg>
