<svg width="25" height="25" viewBox="0 0 25 25" fill="none" xmlns="http://www.w3.org/2000/svg">
<g clip-path="url(#clip0_75_158)">
<path d="M24.8275 5.28492C24.8275 4.82176 24.4519 4.44616 23.9888 4.44616H15.019C14.5664 4.44616 14.1955 4.80532 14.1807 5.25774C14.1801 5.27636 14.108 7.14561 13.0537 9.17179C11.6523 11.8652 9.25359 13.4849 5.92457 13.9858C2.07988 14.5644 0.201911 15.5012 0.0146171 16.9341C-0.153637 18.2213 1.16967 19.1583 1.97806 19.509C3.3126 20.0879 4.88921 20.3814 6.66402 20.3814C8.9191 20.3814 11.3855 19.9059 13.9946 18.9682C14.6583 18.7297 15.313 18.5315 15.9511 18.3667L16.013 19.5319C16.0424 19.9724 16.4083 20.3813 16.8498 20.3813H23.9887C24.4518 20.3813 24.8274 19.9392 24.8274 19.476V5.28492H24.8275ZM18.6206 14.8331C20.5706 14.3831 22.1931 13.6331 23.15 13.1249V15.9611C22.8252 15.9438 22.4247 15.9307 21.9604 15.9307C20.9886 15.9307 19.7679 15.9884 18.3939 16.1787L18.6206 14.8331ZM23.15 11.1919C22.9949 11.2902 21.27 12.3623 18.926 13.0219L20.0886 6.12359H23.15V11.1919ZM17.1604 13.4238C14.6439 13.7711 13.3117 12.6147 12.9717 12.2028C13.6568 11.4503 14.1665 10.6673 14.5418 9.94613C15.3314 8.42866 15.6482 6.98558 15.7746 6.12367H18.3873L17.1604 13.4238ZM6.57587 18.7023C5.11542 18.6854 3.7142 18.4336 2.64579 17.9701C2.034 17.7047 1.63954 17.3383 1.67804 17.1516C1.71662 16.9648 2.29721 16.2231 6.49426 15.5915C6.74018 16.6181 6.89988 18.1622 6.57587 18.7023ZM16.5938 16.4756C15.5559 16.6917 14.5462 16.9874 13.4272 17.3896C11.636 18.0334 9.92737 18.4421 8.32643 18.6125C8.59014 17.4622 8.3297 16.0285 8.1284 15.2055C9.60344 14.756 10.7919 14.0979 11.7456 13.3462C12.3058 13.9864 13.6697 15.1665 16.1144 15.1665C16.3552 15.1665 16.6075 15.1539 16.8696 15.1293L16.5938 16.4756ZM17.6212 18.6374V18.0028C19.3208 17.6931 20.8176 17.6082 21.9604 17.6082C22.437 17.6082 22.8383 17.6234 23.15 17.6415V18.6374H17.6212Z" fill="currentColor"/>
</g>
<defs>
<clipPath id="clip0_75_158">
<rect width="24.8276" height="24.8276" fill="white"/>
</clipPath>
</defs>
</svg>
