<svg width="25" height="25" viewBox="0 0 25 25" fill="none" xmlns="http://www.w3.org/2000/svg">
<path fill-rule="evenodd" clip-rule="evenodd" d="M17.5861 11.3793C17.5861 10.2366 18.5124 9.31033 19.6551 9.31033H21.7241V4.13792H16.4213C15.9619 5.92264 14.3418 7.24137 12.4137 7.24137C10.4857 7.24137 8.86552 5.92264 8.40617 4.13792H3.10339V9.31033H5.17236C6.31501 9.31033 7.24132 10.2366 7.24132 11.3793V20.6896H17.5861V11.3793ZM2.06891 11.3793C1.49758 11.3793 1.03442 10.9162 1.03442 10.3448V4.13792C1.03442 2.99526 1.96073 2.06895 3.10339 2.06895H9.82753C10.1132 2.06895 10.3448 2.30053 10.3448 2.5862V3.10344C10.3448 4.2461 11.271 5.1724 12.4137 5.1724C13.5564 5.1724 14.4827 4.2461 14.4827 3.10344V2.5862C14.4827 2.30053 14.7143 2.06895 14.9999 2.06895H21.7241C22.8668 2.06895 23.793 2.99526 23.793 4.13792V10.3448C23.793 10.9162 23.3299 11.3793 22.7586 11.3793H19.6551V20.6896C19.6551 21.8323 18.7288 22.7586 17.5861 22.7586H7.24132C6.09866 22.7586 5.17236 21.8323 5.17236 20.6896V11.3793H2.06891Z" fill="currentColor"/>
</svg>
